# xmcd
#
# Track frame offsets: 
#        150
#        15661
#        31037
#        38351
#        61661
#        78755
#        97575
#        117140
#        133641
#        151114
#        170495
#        175823
#        199147
#        217077
#        236490
#        258705
#
# Disc length: 3715 seconds
#
# Revision: 0
# Processed by: cddbd v1.5.2PL0 Copyright (c) Steve Scherf et al.
# Submitted via: ExactAudioCopy v0.99pb5
#
DISCID=bb0e8110
DTITLE=Re-Play - Re-Play
DYEAR=1998
DGENRE=R&B
TTITLE0=Kijk Om Je Heen
TTITLE1=Voor Jou
TTITLE2=Alleen Zijn (Interlude)
TTITLE3=Even Alleen Zijn
TTITLE4=Ala Day (Ik Leef Alleen Voor Jou)
TTITLE5=Kom Terug
TTITLE6=Ik Denk Aan Jou
TTITLE7=Ga Met Me Mee
TTITLE8=Oeh Aah (Dit Is Wat Je Wil)
TTITLE9=Het Is Niet Te Laat
TTITLE10=Kon Ik Maar Bij Jou Zijn (interlude)
TTITLE11=Kon Ik Maar Bij Jou Zijn
TTITLE12=Luister Altijd Naar Je Hart
TTITLE13=Kom Terug (remix)
TTITLE14=Stop Messin' With My Mind
TTITLE15=Never Nooit Meer
EXTD=
EXTT0=
EXTT1=
EXTT2=
EXTT3=
EXTT4=
EXTT5=
EXTT6=
EXTT7=
EXTT8=
EXTT9=
EXTT10=
EXTT11=
EXTT12=
EXTT13=
EXTT14=
EXTT15=
PLAYORDER=
